<?xml version="1.0" standalone="no"?>
<!DOCTYPE svg PUBLIC "-//W3C//DTD SVG 1.1//EN"
"http://www.w3.org/Graphics/SVG/1.1/DTD/svg11.dtd"><svg id="svg" version="1.1" width="32" height="32" xmlns="http://www.w3.org/2000/svg"><path d="M0.000 1.250 C 0.000 2.198,3.867 2.500,16.000 2.500 C 28.133 2.500,32.000 2.198,32.000 1.250 C 32.000 0.302,28.133 0.000,16.000 0.000 C 3.867 0.000,0.000 0.302,0.000 1.250 M16.238 9.162 C 14.663 10.737,14.642 14.242,16.200 15.800 C 17.133 16.733,17.061 17.000,15.874 17.000 C 14.166 17.000,10.625 20.573,9.680 23.250 C 9.120 24.837,9.945 25.000,18.531 25.000 C 26.405 25.000,28.000 24.740,28.000 23.455 C 28.000 21.781,24.210 17.570,22.057 16.852 C 20.959 16.486,20.968 16.024,22.106 14.201 C 24.537 10.310,19.454 5.946,16.238 9.162 M6.269 10.693 C 7.242 10.947,8.592 10.930,9.269 10.656 C 9.946 10.382,9.150 10.175,7.500 10.195 C 5.850 10.215,5.296 10.439,6.269 10.693 M6.269 18.693 C 7.242 18.947,8.592 18.930,9.269 18.656 C 9.946 18.382,9.150 18.175,7.500 18.195 C 5.850 18.215,5.296 18.439,6.269 18.693 M0.079 30.250 C 0.007 31.847,1.398 32.000,16.000 32.000 C 30.602 32.000,31.993 31.847,31.921 30.250 C 31.874 29.205,31.639 29.003,31.338 29.750 C 30.616 31.539,1.384 31.539,0.662 29.750 C 0.361 29.003,0.126 29.205,0.079 30.250 " stroke="none" fill="currentColor" fill-rule="evenodd"/></svg>